<?xml version="1.0" encoding="utf-8"?>
<!-- Generator: Adobe Illustrator 23.1.0, SVG Export Plug-In . SVG Version: 6.00 Build 0)  -->
<svg version="1.1" id="Ebene_1" xmlns="http://www.w3.org/2000/svg" xmlns:xlink="http://www.w3.org/1999/xlink" x="0px" y="0px"
	 viewBox="0 0 500 507" style="enable-background:new 0 0 500 507;" xml:space="preserve">
<style type="text/css">
	.st0{fill:#FFFFFF;}
	.st1{fill:url(#SVGID_1_);}
	.st2{fill:url(#SVGID_2_);}
	.st3{fill:url(#SVGID_3_);}
	.st4{fill:url(#SVGID_4_);}
</style>
<g>
	<polyline class="st0" points="144.93,66.93 304.9,120.25 464.86,226.89 464.86,280.21 91.61,493.5 38.29,440.18 91.61,66.93 
		144.93,66.93 	"/>
	<g>
		<g>
			
				<linearGradient id="SVGID_1_" gradientUnits="userSpaceOnUse" x1="256.0568" y1="530.9128" x2="-202.5526" y2="795.691" gradientTransform="matrix(-0.4229 -0.8496 0.8568 -0.5085 -264.9744 503.9391)">
				<stop  offset="0.2" style="stop-color:#FF9602"/>
				<stop  offset="0.75" style="stop-color:#CA3501"/>
			</linearGradient>
			<path class="st1" d="M492.77,212.08c-4.3-9.77-10.74-18.92-20.52-25.96C432.42,157.47,216.41,14.26,174.82,3.35
				c-67.31-17.65-109.78,40.1-109.78,40.1S77,26.42,158.17,72.79c81.17,46.37,219.71,130.28,248.47,154.19
				c19.8,16.46,13.59,41.46,1.4,63.44c14.77-8.82,29.41-17.81,45.17-25.16c8.16-3.81,15.87-8.32,23.54-12.85
				c0.51-3.45,1.14-6.88,2.24-10.22c2.51-7.62,7.48-12.96,11.08-19.83c1.37-2.62,2.18-5.45,2.92-8.3
				C492.9,213.4,492.81,212.75,492.77,212.08z"/>
			
				<linearGradient id="SVGID_2_" gradientUnits="userSpaceOnUse" x1="485.2639" y1="204.9021" x2="27.0767" y2="469.4366" gradientTransform="matrix(1 0 -0.0349 1 10.8881 0)">
				<stop  offset="0.2" style="stop-color:#FF9602"/>
				<stop  offset="0.75" style="stop-color:#CA3501"/>
			</linearGradient>
			<path class="st2" d="M492.15,210.72c0,0,8.98,17.97-80.21,67.6C322.75,327.94,166.1,410.5,127.57,424.72
				c-56.74,20.94-82.1-78.94-82.1-78.94L29.9,467.62c2.28,1.78,4.02,4,5.52,6.37c0.36,0.29,0.63,0.67,0.98,0.98
				c1.77,0.74,3.34,1.69,4.81,2.74c1.57,0.55,3.08,1.24,4.53,2.15c3.4,1.8,6.1,4.26,8.09,7.38c0.39,0.42,0.72,0.88,1.04,1.34
				c0.8,0.36,1.58,0.76,2.34,1.19c-0.18-0.13-0.35-0.27-0.53-0.4c0.01,0.01,0.02,0.02,0.03,0.02c0.02,0.01,0.23,0.17,0.5,0.38
				c1.55,0.87,2.97,1.93,4.29,3.15c5.42,2.15,10.55,6.26,13.24,10.73c16.38,4.24,34.34,4.76,53.31-3.59
				C177.28,478.36,433,355.2,466.78,323.99C521.47,273.48,492.15,210.72,492.15,210.72z"/>
			<g>
				
					<linearGradient id="SVGID_3_" gradientUnits="userSpaceOnUse" x1="80.9858" y1="505.3262" x2="80.9858" y2="40.4238" gradientTransform="matrix(1 0 -0.0349 1 10.8881 0)">
					<stop  offset="0.2" style="stop-color:#FF9602"/>
					<stop  offset="0.75" style="stop-color:#CA3501"/>
				</linearGradient>
				<path class="st3" d="M158.96,73.15C83.6,30.18,67.43,41.13,65.32,43.16c-5.63,7.51-10.06,16.18-12.27,26.18
					C42.1,119.02-5.82,382.62,0.59,425.39c10.37,69.23,81.51,79.94,81.51,79.94s-20.76-2.64-9.73-98.13
					c11.03-95.49,34.32-260.75,45.24-298.17c6.54-22.41,27.04-30.17,49.05-31.48C164.04,76.05,161.47,74.58,158.96,73.15z"/>
			</g>
			<g>
				
					<linearGradient id="SVGID_4_" gradientUnits="userSpaceOnUse" x1="306.3631" y1="161.5149" x2="62.2354" y2="302.4621" gradientTransform="matrix(1 0 -0.0349 1 10.8881 0)">
					<stop  offset="0.2" style="stop-color:#FF9602"/>
					<stop  offset="0.75" style="stop-color:#CA3501"/>
				</linearGradient>
				<path class="st4" d="M123.56,376.1l35.99-248.4c0,0,201.86,125.49,201.8,125.51C361.36,253.22,123.56,376.11,123.56,376.1z"/>
			</g>
		</g>
	</g>
</g>
</svg>
